<?xml version="1.0" encoding="UTF-8"?><svg id="a" xmlns="http://www.w3.org/2000/svg" xmlns:xlink="http://www.w3.org/1999/xlink" viewBox="0 0 153.1 60"><defs><style>.c{fill:url(#b);}.d{fill:#5e5e5e;}</style><linearGradient id="b" x1="1.32" y1="34.39" x2="47.11" y2="34.39" gradientTransform="matrix(1, 0, 0, 1, 0, 0)" gradientUnits="userSpaceOnUse"><stop offset="0" stop-color="#eb5c6d"/><stop offset=".19" stop-color="#c06682"/><stop offset=".46" stop-color="#88749f"/><stop offset=".7" stop-color="#5f7fb5"/><stop offset=".89" stop-color="#4685c2"/><stop offset="1" stop-color="#3d88c7"/></linearGradient></defs><path class="d" d="M6.92,23.18c0-3.31-.4-4-.4-4.66,0-.79,2.88-1.06,3.7-1.06,1.06,0,1.12,1.32,1.32,2.15,.69-1.26,1.69-2.51,3.61-2.51,1.62,0,1.89,1.12,1.89,1.79s-.36,2.78-1.03,2.78c-.46,0-.89-.26-1.55-.26-1.36,0-2.25,.99-2.65,1.65v10.62c0,.69-.6,1.06-1.98,1.06h-.93c-1.39,0-1.98-.36-1.98-1.06v-10.48Z"/><path class="d" d="M18.46,18.65c-.07-.2-.07-.36-.07-.5,0-.91,2.74-.79,2.74-.79,.88-.05,1.79,.17,1.92,.63l2.61,10.19,2.51-10.19c.1-.46,.76-.69,1.82-.69h.79c.93,0,1.72,.23,1.82,.69l2.45,10.19,2.68-10.19c.13-.46,.76-.69,1.82-.69h.13c1.42,0,2.05,.33,2.05,.86,0,.13-.03,.3-.07,.5l-3.9,15.38c-.13,.46-.89,.69-1.82,.69h-1.62c-1.06,0-1.69-.23-1.82-.69l-2.38-9.29-2.25,9.29c-.1,.46-.89,.69-1.82,.69h-1.62c-1.09,0-1.69-.23-1.82-.69l-4.17-15.38Z"/><path class="c" d="M47.07,29.53c-.27-2.11-2.88-3.73-4.49-3.96,.59,.44,1.22,.84,1.74,1.34,.9,.86,1.29,1.91,.98,3.15-.3,1.2-1.05,2.13-1.93,2.96-2.04,1.93-4.49,3.2-7.05,4.25-4.63,1.9-9.47,2.94-14.45,3.39-3.27,.3-6.53,.25-9.76-.34-1.84-.33-3.62-.84-5.17-1.93-1.56-1.1-2.08-2.47-1.55-4.06l-.66-2.45h-.01c-.69,.51-2.04,1.63-2.85,3.18-1.01,1.92-.62,3.73,1.07,5.11,1.53,1.25,3.35,1.86,5.24,2.27,4.02,.89,8.09,.88,12.17,.52,4.4-.39,8.71-1.24,12.91-2.6,3.48-1.13,6.84-2.52,9.83-4.64,1.26-.9,2.42-1.92,3.25-3.24,.56-.9,.88-1.86,.75-2.95Z"/><g><path class="d" d="M54.83,35.24c-1.83,0-3.21-.56-4.16-1.69-.95-1.13-1.43-2.74-1.43-4.83s.48-3.72,1.43-4.83c.95-1.11,2.34-1.67,4.16-1.67s3.21,.56,4.15,1.67,1.41,2.72,1.41,4.83-.47,3.7-1.41,4.83-2.33,1.69-4.15,1.69Zm0-2.83c.74,0,1.27-.31,1.61-.94,.34-.63,.51-1.55,.51-2.75s-.17-2.12-.51-2.74c-.34-.62-.87-.93-1.61-.93s-1.28,.31-1.62,.93c-.35,.62-.52,1.53-.52,2.74s.17,2.12,.52,2.75c.34,.63,.89,.94,1.62,.94Z"/><path class="d" d="M62.97,40.02c-.92,0-1.38-.26-1.38-.77v-12.58c0-.81-.02-1.42-.07-1.86-.05-.43-.09-.76-.14-.98-.05-.22-.07-.41-.07-.57,0-.15,.1-.27,.31-.36s.46-.18,.76-.24c.3-.06,.59-.11,.87-.13,.28-.02,.49-.04,.63-.04,.25,0,.43,.09,.54,.27,.11,.18,.2,.39,.24,.63,.05,.24,.09,.46,.14,.65,.26-.52,.66-.95,1.21-1.29,.54-.35,1.17-.52,1.87-.52,.83,0,1.57,.25,2.22,.75,.65,.5,1.16,1.24,1.53,2.21,.37,.97,.55,2.16,.55,3.56,0,1.96-.42,3.54-1.26,4.72-.84,1.18-2.04,1.78-3.59,1.78-.54,0-1-.08-1.39-.24-.39-.16-.71-.33-.95-.51v4.76c0,.52-.46,.77-1.38,.77h-.64Zm3.63-7.61c.72,0,1.26-.31,1.61-.93,.35-.62,.53-1.53,.53-2.74s-.15-2.07-.46-2.68c-.31-.61-.77-.92-1.4-.92-.43,0-.8,.14-1.1,.43s-.57,.62-.78,.99v5.39c.18,.11,.41,.22,.68,.31,.27,.1,.58,.15,.93,.15Z"/><path class="d" d="M79.9,35.24c-2.08,0-3.61-.58-4.57-1.75-.96-1.17-1.44-2.73-1.44-4.67,0-1.59,.24-2.87,.71-3.84,.48-.97,1.13-1.67,1.98-2.1,.84-.44,1.81-.65,2.9-.65,1.21,0,2.18,.29,2.9,.86,.72,.57,1.25,1.33,1.58,2.27,.33,.94,.49,1.98,.49,3.1,0,.13-.08,.31-.23,.54-.15,.23-.32,.44-.51,.62-.18,.18-.33,.27-.44,.27h-5.86c.08,.97,.35,1.63,.82,1.99s1.08,.54,1.83,.54c.49,0,.92-.06,1.3-.19,.38-.13,.69-.25,.94-.37,.25-.12,.43-.18,.54-.18,.17,0,.34,.12,.53,.36,.18,.24,.34,.51,.47,.8,.13,.29,.2,.52,.2,.68,0,.31-.15,.57-.45,.78s-.67,.4-1.13,.54-.91,.25-1.38,.31c-.47,.06-.86,.1-1.18,.1Zm-2.48-7.75h3.73c0-.71-.13-1.29-.39-1.75-.26-.46-.68-.69-1.26-.69-.48,0-.9,.17-1.29,.52-.38,.35-.64,.99-.78,1.92Z"/><path class="d" d="M87.33,35.1c-.92,0-1.38-.26-1.38-.77v-7.66c0-.81-.02-1.42-.07-1.86-.05-.43-.09-.76-.14-.98-.05-.22-.07-.41-.07-.57,0-.15,.1-.27,.31-.36s.46-.18,.76-.24c.3-.06,.59-.11,.87-.13,.28-.02,.49-.04,.63-.04,.25,0,.42,.09,.54,.27,.12,.18,.2,.39,.24,.63,.05,.24,.09,.47,.14,.68,.25-.47,.56-.89,.94-1.27,.38-.38,.91-.57,1.56-.57,.57,0,.93,.12,1.08,.36s.23,.56,.23,.94c0,.15-.03,.38-.08,.71-.05,.33-.13,.63-.24,.91-.11,.27-.24,.41-.39,.41s-.31-.03-.48-.1c-.17-.06-.37-.1-.6-.1-.31,0-.58,.07-.83,.21-.25,.14-.45,.3-.62,.48-.17,.19-.3,.36-.39,.52v7.75c0,.52-.46,.77-1.38,.77h-.64Z"/><path class="d" d="M96.62,35.24c-1.24,0-2.12-.34-2.63-1.03-.51-.68-.77-1.52-.77-2.5,0-.5,.07-1.01,.22-1.53,.15-.52,.44-1.01,.88-1.46,.45-.45,1.11-.81,1.99-1.09,.88-.27,2.05-.41,3.51-.41v-.8c0-.47-.14-.81-.42-1.04-.28-.23-.74-.34-1.37-.34-.55,0-1.03,.06-1.44,.19s-.74,.26-.99,.39c-.25,.13-.43,.19-.52,.19-.15,0-.33-.12-.52-.37-.19-.25-.35-.53-.48-.85s-.2-.55-.2-.71c0-.27,.19-.54,.56-.8,.38-.26,.9-.47,1.56-.63,.67-.16,1.42-.24,2.26-.24,1.21,0,2.18,.17,2.9,.52s1.24,.82,1.56,1.42c.32,.6,.48,1.3,.48,2.09v4.54c0,.84,.02,1.48,.07,1.92,.05,.44,.09,.77,.14,.99s.07,.41,.07,.59c0,.15-.1,.27-.31,.36-.21,.1-.46,.18-.76,.24-.3,.06-.59,.11-.87,.13-.28,.02-.5,.04-.63,.04-.25,0-.43-.09-.54-.28-.11-.19-.2-.41-.24-.68s-.09-.5-.14-.71c-.05,.1-.2,.29-.47,.59-.27,.3-.64,.58-1.13,.85s-1.08,.4-1.78,.4Zm1.13-2.83c.44,0,.85-.15,1.23-.43,.38-.29,.66-.65,.84-1.09v-1.33c-.55,0-1.03,.04-1.43,.12s-.73,.19-1,.34c-.27,.15-.47,.33-.6,.56-.13,.23-.2,.48-.2,.77,0,.31,.1,.56,.29,.76,.19,.2,.48,.3,.86,.3Z"/><path class="d" d="M109.68,35.24c-.54,0-1.02-.08-1.44-.23s-.77-.39-1.06-.71c-.28-.32-.5-.73-.64-1.22-.15-.49-.22-1.07-.22-1.75v-6.09h-.37c-.46,0-.69-.4-.69-1.21v-.41c0-.81,.23-1.21,.69-1.21h.37l.3-2.29c.08-.52,.49-.77,1.24-.77h.71c.77,0,1.15,.26,1.15,.77v2.29h1.13c.46,0,.69,.4,.69,1.21v.41c0,.81-.23,1.21-.69,1.21h-1.13v6.13c0,.35,.07,.62,.2,.79,.13,.17,.34,.25,.63,.25,.11,0,.22-.02,.35-.05,.12-.03,.21-.05,.28-.05,.15,0,.28,.13,.39,.4,.11,.27,.19,.54,.24,.82s.08,.46,.08,.52c0,.37-.13,.64-.4,.81s-.58,.27-.92,.31c-.34,.04-.64,.06-.89,.06Z"/><path class="d" d="M115.25,21.19c-.6,0-1.03-.06-1.3-.19s-.4-.32-.4-.58v-1.88c0-.26,.13-.45,.4-.58s.7-.19,1.3-.19,1.03,.06,1.3,.19,.4,.32,.4,.58v1.88c0,.26-.13,.45-.4,.58s-.7,.19-1.3,.19Zm-.32,13.91c-.92,0-1.38-.26-1.38-.77v-11.18c0-.52,.46-.77,1.38-.77h.64c.92,0,1.38,.26,1.38,.77v11.18c0,.52-.46,.77-1.38,.77h-.64Z"/><path class="d" d="M124.38,35.24c-1.82,0-3.21-.56-4.16-1.69s-1.43-2.74-1.43-4.83,.47-3.72,1.43-4.83,2.34-1.67,4.16-1.67,3.21,.56,4.15,1.67,1.41,2.72,1.41,4.83-.47,3.7-1.41,4.83-2.33,1.69-4.15,1.69Zm0-2.83c.74,0,1.27-.31,1.61-.94,.34-.63,.51-1.55,.51-2.75s-.17-2.12-.51-2.74c-.34-.62-.88-.93-1.61-.93s-1.28,.31-1.62,.93c-.34,.62-.52,1.53-.52,2.74s.17,2.12,.52,2.75c.35,.63,.89,.94,1.62,.94Z"/><path class="d" d="M132.91,35.1c-.92,0-1.38-.26-1.38-.77v-7.66c0-.81-.02-1.42-.07-1.86-.05-.43-.09-.76-.14-.98s-.07-.41-.07-.57c0-.15,.1-.27,.31-.36s.46-.18,.76-.24c.3-.06,.59-.11,.87-.13,.28-.02,.49-.04,.63-.04,.25,0,.43,.09,.54,.27,.12,.18,.2,.39,.24,.63,.05,.24,.09,.47,.14,.68,.34-.47,.8-.89,1.4-1.27,.6-.38,1.27-.57,2.02-.57,1.15,0,2,.32,2.55,.95,.55,.64,.83,1.62,.83,2.96v8.19c0,.52-.46,.77-1.38,.77h-.64c-.92,0-1.38-.26-1.38-.77v-7.66c0-.47-.1-.83-.31-1.1s-.56-.4-1.07-.4c-.48,0-.87,.17-1.17,.5-.31,.33-.53,.63-.67,.91v7.75c0,.52-.46,.77-1.38,.77h-.64Z"/><path class="d" d="M147.15,35.24c-.57,0-1.15-.06-1.74-.19-.59-.13-1.08-.32-1.48-.57-.4-.25-.6-.54-.6-.88,0-.21,.07-.46,.21-.75,.14-.29,.3-.55,.5-.77,.19-.23,.36-.34,.52-.34,.12,0,.29,.06,.49,.17,.21,.11,.46,.23,.77,.34s.66,.17,1.06,.17c.94,0,1.4-.34,1.4-1.01,0-.37-.18-.65-.53-.85-.35-.19-.8-.41-1.33-.65-.37-.18-.77-.39-1.21-.65-.44-.26-.81-.63-1.13-1.11-.31-.48-.47-1.14-.47-1.96s.17-1.55,.52-2.14c.34-.59,.83-1.04,1.46-1.35,.63-.31,1.36-.47,2.21-.47,.44,0,.93,.04,1.47,.13,.54,.09,1,.24,1.39,.45,.39,.21,.59,.48,.59,.82,0,.18-.05,.42-.16,.72s-.23,.58-.38,.82c-.15,.24-.3,.36-.45,.36-.12,0-.35-.08-.69-.25-.34-.17-.79-.25-1.36-.25-.38,0-.68,.07-.9,.21s-.32,.37-.32,.69c0,.4,.18,.7,.53,.88s.81,.39,1.38,.62c.38,.15,.79,.35,1.21,.6,.42,.26,.79,.63,1.09,1.12,.31,.49,.46,1.15,.46,1.97s-.18,1.54-.53,2.16c-.35,.62-.86,1.1-1.53,1.45-.67,.35-1.48,.52-2.45,.52Z"/></g></svg>