<?xml version="1.0" encoding="utf-8"?>
<!-- Generator: Adobe Illustrator 25.2.1, SVG Export Plug-In . SVG Version: 6.00 Build 0)  -->
<svg version="1.1" id="Layer_1" xmlns="http://www.w3.org/2000/svg" xmlns:xlink="http://www.w3.org/1999/xlink" x="0px" y="0px"
	 viewBox="0 0 193 36.5" style="enable-background:new 0 0 193 36.5;" xml:space="preserve">
<style type="text/css">
	.st0{fill:#3D5D77;}
	.st1{display:none;}
	.st2{display:inline;fill:#3D5D77;}
	.st3{fill:#0AC7D9;}
	.st4{display:inline;fill:#0AC7D9;}
	.st5{fill:#FFFFFF;}
</style>
<g>
	<rect x="1.2" y="15.7" class="st0" width="190.9" height="19.1"/>
	<g class="st1">
		<path class="st2" d="M17.3,5.5c-0.2-0.3-0.5-0.5-0.8-0.6c-0.3-0.2-0.7-0.2-1-0.2c-0.2,0-0.3,0-0.5,0s-0.3,0.1-0.4,0.2
			s-0.2,0.2-0.3,0.3c-0.1,0.1-0.2,0.3-0.2,0.5s0,0.3,0.1,0.4s0.2,0.2,0.3,0.3s0.3,0.2,0.5,0.2s0.4,0.1,0.6,0.2
			c0.3,0.1,0.7,0.2,1.1,0.4c0.4,0.1,0.7,0.3,1,0.5s0.5,0.5,0.7,0.8s0.3,0.7,0.3,1.2c0,0.6-0.1,1.1-0.3,1.5c-0.2,0.4-0.5,0.8-0.8,1
			c-0.4,0.3-0.8,0.5-1.2,0.6C15.9,12.9,15.5,13,15,13c-0.7,0-1.4-0.1-2.1-0.4s-1.2-0.6-1.7-1.1l1.6-1.6c0.2,0.3,0.6,0.5,1,0.7
			s0.8,0.3,1.2,0.3c0.2,0,0.4,0,0.5-0.1c0.2,0,0.3-0.1,0.4-0.2s0.2-0.2,0.3-0.3c0.1-0.1,0.1-0.3,0.1-0.5s0-0.3-0.1-0.5
			c-0.1-0.1-0.2-0.2-0.4-0.4s-0.4-0.2-0.6-0.3s-0.5-0.2-0.9-0.3c-0.3-0.1-0.6-0.2-0.9-0.4c-0.3-0.1-0.6-0.3-0.8-0.5S12.2,6.9,12,6.6
			c-0.1-0.3-0.2-0.7-0.2-1.1c0-0.6,0.1-1,0.3-1.4s0.5-0.7,0.9-1c0.4-0.3,0.8-0.4,1.2-0.6c0.5-0.1,0.9-0.2,1.4-0.2
			c0.6,0,1.1,0.1,1.7,0.3s1.1,0.5,1.5,0.9L17.3,5.5z"/>
		<path class="st2" d="M25.5,5.5C25.3,5.2,25,5,24.7,4.9c-0.3-0.2-0.7-0.2-1-0.2c-0.2,0-0.3,0-0.5,0s-0.3,0.1-0.4,0.2
			s-0.2,0.2-0.3,0.3c-0.1,0.1-0.1,0.3-0.1,0.5s0,0.3,0.1,0.4s0.2,0.2,0.3,0.3s0.3,0.2,0.5,0.2s0.4,0.1,0.6,0.2
			C24.2,6.9,24.6,7,25,7.2c0.4,0.1,0.7,0.3,1,0.5s0.5,0.5,0.7,0.8S27,9.2,27,9.7c0,0.6-0.1,1.1-0.3,1.5c-0.2,0.4-0.5,0.8-0.8,1
			c-0.4,0.3-0.8,0.5-1.2,0.6c-0.5,0.1-0.9,0.2-1.4,0.2c-0.7,0-1.4-0.1-2.1-0.4S20,12,19.5,11.5l1.6-1.6c0.2,0.3,0.6,0.5,1,0.7
			s0.8,0.3,1.2,0.3c0.2,0,0.4,0,0.5-0.1c0.2,0,0.3-0.1,0.4-0.2s0.2-0.2,0.3-0.3c0.1-0.1,0.1-0.3,0.1-0.5s0-0.3-0.1-0.5
			c-0.1-0.1-0.2-0.2-0.4-0.4s-0.4-0.2-0.6-0.3S23,8.4,22.6,8.3c-0.3-0.1-0.6-0.2-0.9-0.4c-0.3-0.1-0.6-0.3-0.8-0.5
			c-0.2-0.2-0.4-0.5-0.6-0.8c-0.1-0.3-0.2-0.7-0.2-1.1c0-0.6,0.1-1,0.3-1.4c0.2-0.4,0.5-0.7,0.9-1s0.8-0.4,1.2-0.6
			c0.5-0.1,0.9-0.2,1.4-0.2c0.6,0,1.1,0.1,1.7,0.3s1.1,0.5,1.5,0.9L25.5,5.5z"/>
		<path class="st2" d="M28.6,12.9V3h6.6v2h-4.4v1.9h4.1v1.9h-4.1v2.1h4.6v2H28.6z"/>
		<path class="st2" d="M42.3,5.5c-0.2-0.3-0.5-0.5-0.8-0.6c-0.3-0.2-0.7-0.2-1-0.2c-0.2,0-0.3,0-0.5,0s-0.3,0.1-0.4,0.2
			c-0.1,0.1-0.2,0.2-0.3,0.3s-0.1,0.3-0.1,0.5s0,0.3,0.1,0.4s0.2,0.2,0.3,0.3s0.3,0.2,0.5,0.2s0.4,0.1,0.6,0.2
			C41,6.9,41.4,7,41.8,7.2c0.4,0.1,0.7,0.3,1,0.5s0.5,0.5,0.7,0.8s0.3,0.7,0.3,1.2c0,0.6-0.1,1.1-0.3,1.5s-0.5,0.8-0.8,1
			c-0.4,0.3-0.8,0.5-1.2,0.6C41,12.9,40.6,13,40.1,13c-0.7,0-1.4-0.1-2.1-0.4s-1.2-0.6-1.7-1.1l1.6-1.6c0.2,0.3,0.6,0.5,1,0.7
			s0.8,0.3,1.2,0.3c0.2,0,0.4,0,0.5-0.1c0.2,0,0.3-0.1,0.4-0.2s0.2-0.2,0.3-0.3s0.1-0.3,0.1-0.5s0-0.3-0.1-0.5
			c-0.1-0.1-0.2-0.2-0.4-0.4s-0.4-0.2-0.6-0.3s-0.5-0.2-0.9-0.3c-0.3-0.1-0.6-0.2-0.9-0.4c-0.3-0.1-0.6-0.3-0.8-0.5
			s-0.4-0.5-0.6-0.8c-0.1-0.3-0.2-0.7-0.2-1.1c0-0.6,0.1-1,0.3-1.4s0.5-0.7,0.9-1s0.8-0.4,1.2-0.6c0.5-0.1,0.9-0.2,1.4-0.2
			c0.6,0,1.1,0.1,1.7,0.3c0.6,0.2,1.1,0.5,1.5,0.9L42.3,5.5z"/>
		<path class="st2" d="M50.6,5.5c-0.2-0.3-0.5-0.5-0.8-0.6s-0.7-0.2-1-0.2c-0.2,0-0.3,0-0.5,0S48,4.8,47.9,4.9s-0.2,0.2-0.3,0.3
			s-0.1,0.3-0.1,0.5s0,0.3,0.1,0.4s0.2,0.2,0.3,0.3s0.3,0.2,0.5,0.2c0.2,0.1,0.4,0.1,0.6,0.2c0.3,0.1,0.7,0.2,1.1,0.4
			c0.4,0.1,0.7,0.3,1,0.5s0.5,0.5,0.7,0.8s0.3,0.7,0.3,1.2c0,0.6-0.1,1.1-0.3,1.5s-0.5,0.8-0.8,1c-0.4,0.3-0.8,0.5-1.2,0.6
			c-0.5,0.1-0.9,0.2-1.4,0.2c-0.7,0-1.4-0.1-2.1-0.4s-1.2-0.6-1.7-1.1l1.6-1.6c0.2,0.3,0.6,0.5,1,0.7s0.8,0.3,1.2,0.3
			c0.2,0,0.4,0,0.5-0.1c0.2,0,0.3-0.1,0.4-0.2s0.2-0.2,0.3-0.3s0.1-0.3,0.1-0.5s0-0.3-0.1-0.5c-0.1-0.1-0.2-0.2-0.4-0.4
			s-0.4-0.2-0.6-0.3s-0.5-0.2-0.9-0.3c-0.3-0.1-0.6-0.2-0.9-0.4c-0.3-0.1-0.6-0.3-0.8-0.5s-0.4-0.5-0.6-0.8
			c-0.1-0.3-0.2-0.7-0.2-1.1c0-0.6,0.1-1,0.3-1.4s0.5-0.7,0.9-1s0.8-0.4,1.2-0.6c0.5-0.1,0.9-0.2,1.4-0.2c0.6,0,1.1,0.1,1.7,0.3
			c0.6,0.2,1.1,0.5,1.5,0.9L50.6,5.5z"/>
		<path class="st2" d="M62.6,12.9l0.1-7l0,0l-2.6,7h-1.7l-2.5-7l0,0l0.1,7h-2.3V3h3.4l2.3,6.4h0.1L61.7,3h3.5v9.9H62.6z"/>
		<path class="st2" d="M67,12.9V3h6.7v2h-4.4v1.9h4.1v1.9h-4.1v2.1h4.6v2H67z"/>
		<path class="st2" d="M81.8,12.9l-4-6.5l0,0l0.1,6.5h-2.3V3h2.6l4,6.5l0,0V3h2.3v9.9H81.8z"/>
		<path class="st2" d="M90.8,5v7.9h-2.4V5h-2.8V3h8v2H90.8z"/>
		<path class="st2" d="M104.9,12.9l-0.9-1c-0.3,0.3-0.7,0.6-1.2,0.8s-1,0.3-1.7,0.3c-0.4,0-0.9-0.1-1.3-0.2s-0.8-0.3-1.1-0.5
			c-0.3-0.2-0.6-0.6-0.8-0.9c-0.2-0.4-0.3-0.8-0.3-1.3c0-0.3,0.1-0.7,0.2-1s0.3-0.5,0.5-0.8c0.2-0.2,0.4-0.4,0.7-0.6
			s0.5-0.3,0.8-0.4c-0.3-0.3-0.6-0.6-0.7-1c-0.2-0.4-0.3-0.7-0.3-1.2c0-0.4,0.1-0.8,0.3-1.1s0.4-0.6,0.7-0.8s0.6-0.4,1-0.4
			c0.4-0.1,0.7-0.1,1.1-0.1s0.7,0,1.1,0.1s0.7,0.2,1,0.5c0.3,0.2,0.5,0.5,0.7,0.8s0.3,0.7,0.3,1.1c0,0.3-0.1,0.6-0.2,0.9
			s-0.2,0.5-0.4,0.7c-0.2,0.2-0.4,0.4-0.6,0.6s-0.5,0.3-0.8,0.5l1.2,1.3l1-1.5h2.5l-2.1,2.9l2.5,2.5h-3.2V12.9z M100.8,8.7
			c-0.3,0.1-0.5,0.3-0.7,0.5s-0.3,0.5-0.3,0.9c0,0.2,0,0.4,0.1,0.5s0.2,0.3,0.3,0.4c0.1,0.1,0.3,0.2,0.4,0.2
			c0.2,0.1,0.3,0.1,0.5,0.1c0.3,0,0.6-0.1,0.8-0.2c0.2-0.1,0.5-0.3,0.6-0.6L100.8,8.7z M102.6,5.3c0-0.3-0.1-0.5-0.3-0.6
			c-0.2-0.2-0.4-0.3-0.7-0.3c-0.3,0-0.5,0.1-0.7,0.3s-0.3,0.4-0.3,0.7c0,0.2,0.1,0.5,0.2,0.7s0.3,0.4,0.6,0.6
			c0.3-0.1,0.6-0.3,0.8-0.5C102.5,5.8,102.6,5.6,102.6,5.3z"/>
		<path class="st2" d="M132.6,12.9l-4-6.5l0,0l0.1,6.5h-2.3V3h2.7l4,6.5l0,0L133,3h2.3v9.9C135.3,12.9,132.6,12.9,132.6,12.9z"/>
		<path class="st2" d="M144.1,12.9l-0.8-1.9h-3.8l-0.7,1.9h-2.6l4.2-9.9h2.3l4.1,9.9H144.1z M141.4,5.6L140.1,9h2.5L141.4,5.6z"/>
		<path class="st2" d="M147.6,12.9V3h2.4v7.8h3.8v2.1H147.6z"/>
		<path class="st2" d="M158.7,8.7v4.2h-2.4V8.7L152.6,3h2.9l2.1,3.7l2.1-3.7h2.8L158.7,8.7z"/>
		<path class="st2" d="M168.4,5.5c-0.2-0.3-0.5-0.5-0.8-0.6s-0.7-0.2-1-0.2c-0.2,0-0.3,0-0.5,0s-0.3,0.1-0.4,0.2
			c-0.1,0.1-0.2,0.2-0.3,0.3s-0.1,0.3-0.1,0.5s0,0.3,0.1,0.4s0.2,0.2,0.3,0.3s0.3,0.2,0.5,0.2s0.4,0.1,0.6,0.2
			c0.3,0.1,0.7,0.2,1,0.4c0.4,0.1,0.7,0.3,1,0.5s0.5,0.5,0.7,0.8s0.3,0.7,0.3,1.2c0,0.6-0.1,1.1-0.3,1.5s-0.5,0.8-0.8,1
			s-0.8,0.5-1.2,0.6c-0.5,0.1-0.9,0.2-1.4,0.2c-0.7,0-1.4-0.1-2.1-0.4c-0.7-0.2-1.2-0.6-1.7-1.1l1.6-1.6c0.2,0.3,0.6,0.5,1,0.7
			s0.8,0.3,1.2,0.3c0.2,0,0.3,0,0.5-0.1c0.2,0,0.3-0.1,0.4-0.2s0.2-0.2,0.3-0.3s0.1-0.3,0.1-0.5s0-0.3-0.1-0.5
			c-0.1-0.1-0.2-0.2-0.4-0.4s-0.4-0.2-0.6-0.3c-0.3-0.1-0.5-0.2-0.9-0.3c-0.3-0.1-0.6-0.2-0.9-0.4c-0.3-0.1-0.6-0.3-0.8-0.5
			s-0.4-0.5-0.6-0.8s-0.2-0.7-0.2-1.1c0-0.6,0.1-1,0.3-1.4s0.5-0.7,0.9-1s0.8-0.4,1.2-0.6c0.5-0.1,0.9-0.2,1.4-0.2
			c0.6,0,1.1,0.1,1.7,0.3c0.6,0.2,1.1,0.5,1.5,0.9L168.4,5.5z"/>
		<path class="st2" d="M171.5,12.9V3h2.4v9.9H171.5z"/>
		<path class="st2" d="M181.2,5.5c-0.2-0.3-0.5-0.5-0.8-0.6s-0.7-0.2-1-0.2c-0.2,0-0.3,0-0.5,0s-0.3,0.1-0.4,0.2
			c-0.1,0.1-0.2,0.2-0.3,0.3s-0.1,0.3-0.1,0.5s0,0.3,0.1,0.4s0.2,0.2,0.3,0.3s0.3,0.2,0.5,0.2s0.4,0.1,0.6,0.2
			c0.3,0.1,0.7,0.2,1,0.4c0.4,0.1,0.7,0.3,1,0.5s0.5,0.5,0.7,0.8s0.3,0.7,0.3,1.2c0,0.6-0.1,1.1-0.3,1.5s-0.5,0.8-0.8,1
			s-0.8,0.5-1.2,0.6c-0.5,0.1-0.9,0.2-1.4,0.2c-0.7,0-1.4-0.1-2.1-0.4c-0.7-0.2-1.2-0.6-1.7-1.1l1.6-1.6c0.2,0.3,0.6,0.5,1,0.7
			s0.8,0.3,1.2,0.3c0.2,0,0.3,0,0.5-0.1c0.2,0,0.3-0.1,0.4-0.2s0.2-0.2,0.3-0.3s0.1-0.3,0.1-0.5s0-0.3-0.1-0.5
			c-0.1-0.1-0.2-0.2-0.4-0.4s-0.4-0.2-0.6-0.3c-0.3-0.1-0.5-0.2-0.9-0.3c-0.3-0.1-0.6-0.2-0.9-0.4c-0.3-0.1-0.6-0.3-0.8-0.5
			s-0.4-0.5-0.6-0.8s-0.2-0.7-0.2-1.1c0-0.6,0.1-1,0.3-1.4s0.5-0.7,0.9-1s0.8-0.4,1.2-0.6c0.5-0.1,0.9-0.2,1.4-0.2
			c0.6,0,1.1,0.1,1.7,0.3c0.6,0.2,1.1,0.5,1.5,0.9L181.2,5.5z"/>
	</g>
	<g>
		<path class="st3" d="M8.2,14.8L7.5,13H4.1l-0.7,1.8H1.6l3.5-8h1.6l3.4,8H8.2z M8.5,7.1C8,7.1,7.6,6.7,7.6,6.2V4.6l2.5,2.5H8.5z
			 M7.6,4.6H1.8C1.3,4.6,1,4.9,1,5.4v9c0,0.5,0.4,0.8,0.8,0.8h7.5c0.5,0,0.8-0.4,0.8-0.8V7.2L7.6,4.6z M103.2,6.8
			c-0.5,0-0.9-0.4-0.9-0.9V4.4l2.5,2.5L103.2,6.8L103.2,6.8z M102.3,4.4h-5.8c-0.5,0-0.8,0.3-0.8,0.8v9c0,0.5,0.4,0.8,0.8,0.8h7.5
			c0.5,0,0.8-0.4,0.8-0.8V6.9L102.3,4.4z M152.9,6.7c-0.6,0-1.1-0.4-1.1-1V3.8l2.9,2.7L152.9,6.7L152.9,6.7L152.9,6.7z M151.8,3.8
			h-6.9c-0.6,0-1,0.3-1,0.9v9.6c0,0.6,0.4,0.9,1,0.9h8.8c0.6,0,1-0.4,1-0.9V6.7L151.8,3.8z M61.2,14.7l-0.7-1.8h-3.4l-0.7,1.8h-1.8
			l3.5-8h1.6l3.4,8H61.2z M61.5,7c-0.5,0-0.9-0.4-0.9-0.9V4.5L63.1,7H61.5z M60.6,4.5h-5.8c-0.5,0-0.8,0.3-0.8,0.8v9
			c0,0.5,0.4,0.8,0.8,0.8h7.5c0.5,0,0.8-0.4,0.8-0.8V7.1L60.6,4.5z"/>
		<polygon class="st3" points="4.9,11.5 7,11.5 5.9,8.8 		"/>
	</g>
	<g class="st1">
		<path class="st4" d="M121.1-0.1h-7.7c-0.7,0-1.1,0.5-1.1,1.1v11.9c0,0.7,0.5,1.1,1.1,1.1h9.9c0.7,0,1.1-0.5,1.1-1.1V3.3L121.1-0.1
			z M121.2,12.6l-0.8-2.1h-4l-0.8,2.1h-2.1l4.1-9.4h1.9l4,9.4H121.2z M122,3.5c-0.6,0-1-0.4-1-1V0.7l2.9,2.9H122
			C122,3.6,122,3.5,122,3.5z"/>
		<polygon class="st4" points="117.2,8.8 119.7,8.8 118.5,5.7 		"/>
	</g>
</g>
<g>
	<g>
		<path class="st5" d="M98.1,7.3c0.5-0.1,1.2-0.2,2.3-0.2c1,0,1.8,0.2,2.3,0.6s0.8,1,0.8,1.7s-0.2,1.3-0.7,1.8
			c-0.6,0.5-1.4,0.8-2.4,0.8c-0.2,0-0.4,0-0.6,0v2.7h-1.7C98.1,14.7,98.1,7.3,98.1,7.3z M99.8,10.7c0.1,0,0.3,0,0.6,0
			c0.9,0,1.4-0.5,1.4-1.2s-0.5-1.1-1.3-1.1c-0.3,0-0.6,0-0.7,0.1V10.7z"/>
	</g>
</g>
<g>
	<g>
		<path class="st5" d="M151.3,11.7c0-0.9-0.1-2-0.1-3.1l0,0c-0.2,0.9-0.5,2-0.8,2.9l-0.9,2.9h-1.3l-0.8-2.9
			c-0.2-0.9-0.5-1.9-0.7-2.9l0,0c0,1-0.1,2.2-0.1,3.1l-0.1,2.8h-1.6l0.5-7.4h2.2l0.7,2.5c0.2,0.9,0.5,1.8,0.6,2.7l0,0
			c0.2-0.9,0.5-1.8,0.7-2.7l0.8-2.5h2.2l0.4,7.4h-1.6L151.3,11.7z"/>
	</g>
</g>
<g>
	<g>
		<path class="st0" d="M12.9,12.7c0,0.5,0.2,0.8,0.6,0.8c0.4,0,0.5-0.3,0.5-0.6c0-0.4-0.2-0.7-0.9-1c-1.1-0.5-1.5-1-1.5-1.9
			c0-1,0.6-1.7,1.8-1.7c1.4,0,1.8,0.9,1.8,1.8H14c0-0.4-0.1-0.8-0.5-0.8c-0.3,0-0.4,0.2-0.4,0.5c0,0.3,0.1,0.5,0.8,0.9
			c1.1,0.6,1.6,1,1.6,2.1c0,1-0.6,1.8-2,1.8c-1.5,0-1.9-0.8-2-1.9H12.9z"/>
		<path class="st0" d="M17.2,12.7c0,0.5,0.2,0.8,0.6,0.8c0.4,0,0.5-0.3,0.5-0.6c0-0.4-0.2-0.7-0.9-1c-1.1-0.5-1.5-1-1.5-1.9
			c0-1,0.6-1.7,1.8-1.7c1.4,0,1.8,0.9,1.8,1.8h-1.3c0-0.4-0.1-0.8-0.5-0.8c-0.3,0-0.4,0.2-0.4,0.5c0,0.3,0.1,0.5,0.8,0.9
			c1.1,0.6,1.6,1,1.6,2.1c0,1-0.6,1.8-2,1.8c-1.5,0-1.9-0.8-2-1.9H17.2z"/>
		<path class="st0" d="M23.6,11.9h-1.8v1.4h2.1l-0.2,1.1h-3.3V8.4h3.3v1.1h-1.9v1.2h1.8V11.9z"/>
		<path class="st0" d="M25.6,12.7c0,0.5,0.2,0.8,0.6,0.8c0.4,0,0.5-0.3,0.5-0.6c0-0.4-0.2-0.7-0.9-1c-1.1-0.5-1.5-1-1.5-1.9
			c0-1,0.6-1.7,1.8-1.7c1.4,0,1.8,0.9,1.8,1.8h-1.3c0-0.4-0.1-0.8-0.5-0.8c-0.3,0-0.4,0.2-0.4,0.5c0,0.3,0.1,0.5,0.8,0.9
			c1.1,0.6,1.6,1,1.6,2.1c0,1-0.6,1.8-2,1.8c-1.5,0-1.9-0.8-2-1.9H25.6z"/>
		<path class="st0" d="M29.9,12.7c0,0.5,0.2,0.8,0.6,0.8c0.4,0,0.5-0.3,0.5-0.6c0-0.4-0.2-0.7-0.9-1c-1.1-0.5-1.5-1-1.5-1.9
			c0-1,0.6-1.7,1.8-1.7c1.4,0,1.8,0.9,1.8,1.8H31c0-0.4-0.1-0.8-0.5-0.8c-0.3,0-0.4,0.2-0.4,0.5c0,0.3,0.1,0.5,0.8,0.9
			c1.1,0.6,1.6,1,1.6,2.1c0,1-0.6,1.8-2,1.8c-1.5,0-1.9-0.8-2-1.9H29.9z"/>
		<path class="st0" d="M36.8,12.6c0-0.9,0-2.2,0-2.9h0c-0.2,1.3-0.4,3.3-0.7,4.9H35c-0.2-1.6-0.5-3.7-0.6-4.9h0c0,0.7,0.1,1.9,0.1,3
			v1.9h-1.2V8.4h2c0.2,1.3,0.4,2.8,0.5,3.6h0c0.1-0.9,0.3-2.2,0.6-3.6h1.9v6.1h-1.3V12.6z"/>
		<path class="st0" d="M42.2,11.9h-1.8v1.4h2.1l-0.2,1.1H39V8.4h3.3v1.1h-1.9v1.2h1.8V11.9z"/>
		<path class="st0" d="M43.1,14.5V8.4h1.5c0.9,2.9,1.1,3.6,1.2,3.8h0c-0.1-0.8-0.1-1.8-0.1-2.7V8.4H47v6.1h-1.5
			c-1-3.2-1.1-3.8-1.2-4h0c0,0.7,0.1,1.9,0.1,2.9v1.2H43.1z"/>
		<path class="st0" d="M48.7,9.6h-1.2V8.4h3.8v1.1h-1.2v4.9h-1.4V9.6z"/>
		<path class="st0" d="M51.4,15.4c0.3-0.9,0.5-1.9,0.5-2.5h1.3c-0.1,1-0.5,2-0.8,2.5H51.4z"/>
	</g>
</g>
<g>
	<g>
		<path class="st0" d="M64.4,14.5V8.4h1.5c0.9,2.9,1.1,3.6,1.2,3.8h0c-0.1-0.8-0.1-1.8-0.1-2.7V8.4h1.2v6.1h-1.5
			c-1-3.2-1.1-3.8-1.2-4h0c0,0.7,0.1,1.9,0.1,2.9v1.2H64.4z"/>
		<path class="st0" d="M70.4,13.2l-0.2,1.3h-1.4L70,8.4h2l1.2,6.1h-1.5l-0.2-1.3H70.4z M71.3,12c-0.1-0.9-0.3-1.9-0.3-2.4h0
			c-0.1,0.6-0.2,1.5-0.4,2.4H71.3z"/>
		<path class="st0" d="M73.6,8.4H75v4.9H77l-0.1,1.1h-3.2V8.4z"/>
		<path class="st0" d="M78.4,14.5v-2c0-0.1,0-0.2,0-0.3l-1.4-3.8h1.5c0.3,0.9,0.5,2,0.7,2.7c0.2-0.7,0.5-1.8,0.7-2.7h1.4l-1.4,3.8
			c0,0.1,0,0.1,0,0.2v2H78.4z"/>
		<path class="st0" d="M82.8,12.7c0,0.5,0.2,0.8,0.6,0.8c0.4,0,0.5-0.3,0.5-0.6c0-0.4-0.2-0.7-0.9-1c-1.1-0.5-1.5-1-1.5-1.9
			c0-1,0.6-1.7,1.8-1.7c1.4,0,1.8,0.9,1.8,1.8h-1.3c0-0.4-0.1-0.8-0.5-0.8c-0.3,0-0.4,0.2-0.4,0.5c0,0.3,0.1,0.5,0.8,0.9
			c1.1,0.6,1.6,1,1.6,2.1c0,1-0.6,1.8-2,1.8c-1.5,0-1.9-0.8-2-1.9H82.8z"/>
		<path class="st0" d="M87.4,8.4v6.1H86V8.4H87.4z"/>
		<path class="st0" d="M89.4,12.7c0,0.5,0.2,0.8,0.6,0.8c0.4,0,0.5-0.3,0.5-0.6c0-0.4-0.2-0.7-0.9-1c-1.1-0.5-1.5-1-1.5-1.9
			c0-1,0.6-1.7,1.8-1.7c1.4,0,1.8,0.9,1.8,1.8h-1.3c0-0.4-0.1-0.8-0.5-0.8c-0.3,0-0.4,0.2-0.4,0.5c0,0.3,0.1,0.5,0.8,0.9
			c1.1,0.6,1.6,1,1.6,2.1c0,1-0.6,1.8-2,1.8c-1.5,0-1.9-0.8-2-1.9H89.4z"/>
		<path class="st0" d="M92.2,15.4c0.3-0.9,0.5-1.9,0.5-2.5H94c-0.1,1-0.5,2-0.8,2.5H92.2z"/>
	</g>
</g>
<g>
	<g>
		<path class="st0" d="M105.7,8.9h1.4v4.9h1.9l-0.1,1.1h-3.2V8.9z"/>
		<path class="st0" d="M110.7,13.7l-0.2,1.3h-1.4l1.2-6.1h2l1.2,6.1H112l-0.2-1.3H110.7z M111.6,12.5c-0.1-0.9-0.3-1.9-0.3-2.4h0
			c-0.1,0.6-0.2,1.5-0.4,2.4H111.6z"/>
		<path class="st0" d="M114,15V8.9h1.5c0.9,2.9,1.1,3.6,1.2,3.8h0c-0.1-0.8-0.1-1.8-0.1-2.7V8.9h1.2V15h-1.5c-1-3.2-1.1-3.8-1.2-4h0
			c0,0.7,0.1,1.9,0.1,2.9V15H114z"/>
		<path class="st0" d="M118.8,15V8.9h1.5c0.9,2.9,1.1,3.6,1.2,3.8h0c-0.1-0.8-0.1-1.8-0.1-2.7V8.9h1.2V15h-1.5c-1-3.2-1.1-3.8-1.2-4
			h0c0,0.7,0.1,1.9,0.1,2.9V15H118.8z"/>
		<path class="st0" d="M125,8.9V15h-1.4V8.9H125z"/>
		<path class="st0" d="M125.9,15V8.9h1.5c0.9,2.9,1.1,3.6,1.2,3.8h0c-0.1-0.8-0.1-1.8-0.1-2.7V8.9h1.2V15h-1.5c-1-3.2-1.1-3.8-1.2-4
			h0c0,0.7,0.1,1.9,0.1,2.9V15H125.9z"/>
		<path class="st0" d="M134.6,15h-1c0-0.2,0-0.3-0.1-0.5c-0.3,0.5-0.7,0.6-1.2,0.6c-1.2,0-1.8-0.9-1.8-3.1c0-2.4,0.8-3.2,2.2-3.2
			c1.7,0,1.9,1.4,1.9,1.8h-1.4c0-0.3-0.1-0.7-0.5-0.7c-0.5,0-0.6,0.7-0.6,2.1c0,1.5,0.1,2,0.6,2c0.4,0,0.6-0.4,0.6-1v-0.4h-0.6v-1.1
			h2V15z"/>
		<path class="st0" d="M141.8,11.3l-1.3,2.3c-0.6,1-0.9,1.5-2,1.5s-1.7-0.7-1.7-1.7c0-0.8,0.3-1.3,1.5-1.9c0.8-0.4,0.9-0.7,0.9-1.1
			c0-0.3-0.1-0.5-0.4-0.5c-0.2,0-0.4,0.2-0.4,0.5c0,0.3,0.2,0.6,0.4,0.9l3.1,3.8h-1.6l-2.5-3.2c-0.3-0.4-0.6-0.9-0.6-1.5
			c0-0.8,0.5-1.5,1.6-1.5c1,0,1.6,0.6,1.6,1.4c0,0.9-0.5,1.3-1.4,1.8c-0.6,0.3-0.8,0.7-0.8,1.2c0,0.5,0.2,0.8,0.6,0.8
			c0.4,0,0.6-0.3,1-1l0.9-1.6H141.8z"/>
	</g>
</g>
<g>
	<g>
		<path class="st0" d="M159.9,11.9c0,2.2-0.6,3.2-2.1,3.2c-1.4,0-2-1-2-3.2c0-2.2,0.7-3.1,2.1-3.1C159.3,8.8,159.9,9.8,159.9,11.9z
			 M157.2,11.9c0,1.5,0.1,2.1,0.6,2.1c0.5,0,0.6-0.6,0.6-2.1c0-1.4-0.1-2-0.6-2C157.3,9.9,157.2,10.5,157.2,11.9z"/>
		<path class="st0" d="M160.6,15V8.9h1.5c0.9,2.9,1.1,3.6,1.2,3.8h0c-0.1-0.8-0.1-1.8-0.1-2.7V8.9h1.2V15h-1.5c-1-3.2-1.1-3.8-1.2-4
			h0c0,0.7,0.1,1.9,0.1,2.9V15H160.6z"/>
		<path class="st0" d="M166.9,8.9V15h-1.4V8.9H166.9z"/>
		<path class="st0" d="M168.6,10.1h-1.2V8.9h3.8v1.1H170V15h-1.4V10.1z"/>
		<path class="st0" d="M175.7,11.9c0,2.2-0.6,3.2-2.1,3.2c-1.4,0-2-1-2-3.2c0-2.2,0.7-3.1,2.1-3.1C175.1,8.8,175.7,9.8,175.7,11.9z
			 M173,11.9c0,1.5,0.1,2.1,0.6,2.1c0.5,0,0.6-0.6,0.6-2.1c0-1.4-0.1-2-0.6-2C173.2,9.9,173,10.5,173,11.9z"/>
		<path class="st0" d="M177.9,12.5V15h-1.4V8.9h2.1c1.2,0,1.8,0.6,1.8,1.7c0,0.8-0.4,1.2-0.8,1.4c0.5,0.2,0.7,0.6,0.7,1.5v0.2
			c0,0.7,0,1.1,0.1,1.3h-1.4c-0.1-0.2-0.1-0.8-0.1-1.4v-0.2c0-0.7-0.1-0.9-0.7-0.9H177.9z M177.9,11.5h0.3c0.5,0,0.7-0.2,0.7-0.8
			c0-0.5-0.2-0.7-0.6-0.7h-0.4V11.5z"/>
		<path class="st0" d="M182.4,8.9V15H181V8.9H182.4z"/>
		<path class="st0" d="M183.3,15V8.9h1.5c0.9,2.9,1.1,3.6,1.2,3.8h0C186,12,186,11,186,10V8.9h1.2V15h-1.5c-1-3.2-1.1-3.8-1.2-4h0
			c0,0.7,0.1,1.9,0.1,2.9V15H183.3z"/>
		<path class="st0" d="M192,15h-1c0-0.2,0-0.3-0.1-0.5c-0.3,0.5-0.7,0.6-1.2,0.6c-1.2,0-1.8-0.9-1.8-3.1c0-2.4,0.8-3.2,2.2-3.2
			c1.7,0,1.9,1.4,1.9,1.8h-1.4c0-0.3-0.1-0.7-0.5-0.7c-0.5,0-0.6,0.7-0.6,2.1c0,1.5,0.1,2,0.6,2c0.4,0,0.6-0.4,0.6-1v-0.4h-0.6v-1.1
			h2V15z"/>
	</g>
</g>
<polygon class="st3" points="57.8,11.3 59.9,11.3 58.8,8.6 "/>
<g>
	<g>
		<path class="st5" d="M3.1,22.2h1v3.3c0.5-0.5,2.2-2.2,3.3-3.3h1.3l-2.9,2.9l3.1,4H7.6L5,25.8l-0.9,0.8v2.6h-1V22.2z"/>
		<path class="st5" d="M9.5,29.1v-6.9h1.3c1,1.6,3,4.9,3.4,5.7h0c-0.1-0.9-0.1-2-0.1-3.1v-2.6h1v6.9h-1.3c-0.9-1.5-3.1-5.1-3.5-5.9
			h0c0.1,0.8,0.1,2,0.1,3.2v2.7H9.5z"/>
		<path class="st5" d="M23,25.6c0,1.9-1.1,3.6-3.3,3.6c-2.1,0-3.2-1.6-3.2-3.6c0-2,1.2-3.6,3.3-3.6C21.7,22.1,23,23.6,23,25.6z
			 M17.6,25.6c0,1.5,0.7,2.7,2.2,2.7c1.6,0,2.2-1.3,2.2-2.7c0-1.5-0.7-2.7-2.2-2.7C18.2,23,17.6,24.2,17.6,25.6z"/>
		<path class="st5" d="M25.5,29.1l-1.8-6.9h1.1c0.6,2.4,1.2,5,1.3,5.8h0c0.2-1,1.1-4.1,1.5-5.8h1c0.4,1.5,1.3,4.9,1.5,5.8h0
			c0.2-1.3,1.1-4.4,1.5-5.8h1l-2,6.9h-1.1c-0.4-1.6-1.2-4.7-1.4-5.6h0c-0.2,1.1-1.1,4-1.5,5.6H25.5z"/>
		<path class="st5" d="M33.6,22.2h1v6.1h3.6l-0.1,0.9h-4.5V22.2z"/>
		<path class="st5" d="M43.6,25.9h-3.4v2.3h3.8l-0.1,0.9h-4.6v-6.9h4.6v0.9h-3.6v2h3.4V25.9z"/>
		<path class="st5" d="M45.1,22.2h2.5c2,0,3.3,1.3,3.3,3.4c0,2-1.3,3.5-3.3,3.5h-2.5V22.2z M46.1,28.3h1.4c1.6,0,2.3-1.1,2.3-2.7
			c0-1.3-0.7-2.6-2.3-2.6h-1.4V28.3z"/>
		<path class="st5" d="M57.9,29.1h-0.8c0-0.1-0.1-0.4-0.1-0.9c-0.3,0.5-0.9,1-2.1,1c-2,0-3.1-1.5-3.1-3.5c0-2.1,1.2-3.6,3.3-3.6
			c1.6,0,2.7,0.9,2.9,2.1h-1c-0.2-0.7-0.7-1.3-1.8-1.3c-1.6,0-2.2,1.3-2.2,2.8c0,1.4,0.6,2.7,2.1,2.7c1.5,0,1.9-1,1.9-2.1v-0.1H55
			v-0.9h2.9V29.1z"/>
		<path class="st5" d="M63.9,25.9h-3.4v2.3h3.8l-0.1,0.9h-4.6v-6.9H64v0.9h-3.6v2h3.4V25.9z"/>
		<path class="st5" d="M73.7,26.2c0-1.3,0-2.6,0-3.3h0c-0.3,1.2-1.3,4-2.1,6.2h-0.9c-0.6-1.8-1.7-5-2-6.2h0c0.1,0.8,0.1,2.3,0.1,3.5
			v2.7h-1v-6.9h1.5c0.7,2.1,1.6,4.8,1.9,5.7h0c0.2-0.7,1.2-3.6,2-5.7h1.5v6.9h-1V26.2z"/>
		<path class="st5" d="M77.4,27.1l-0.7,2h-1l2.5-6.9h1.3l2.6,6.9h-1.1l-0.7-2H77.4z M79.9,26.3c-0.6-1.8-1-2.7-1.1-3.3h0
			c-0.2,0.6-0.6,1.8-1.1,3.3H79.9z"/>
		<path class="st5" d="M82.9,29.1v-6.9h1.3c1,1.6,3,4.9,3.4,5.7h0c-0.1-0.9-0.1-2-0.1-3.1v-2.6h1v6.9h-1.3c-0.9-1.5-3.1-5.1-3.5-5.9
			h0c0,0.8,0.1,2,0.1,3.2v2.7H82.9z"/>
		<path class="st5" d="M91.3,27.1l-0.7,2h-1l2.5-6.9h1.3l2.6,6.9h-1.1l-0.7-2H91.3z M93.8,26.3c-0.6-1.8-1-2.7-1.1-3.3h0
			c-0.2,0.6-0.6,1.8-1.1,3.3H93.8z"/>
		<path class="st5" d="M102.5,29.1h-0.8c0-0.1-0.1-0.4-0.1-0.9c-0.3,0.5-0.9,1-2.1,1c-2,0-3.1-1.5-3.1-3.5c0-2.1,1.2-3.6,3.3-3.6
			c1.6,0,2.7,0.9,2.9,2.1h-1c-0.2-0.7-0.7-1.3-1.8-1.3c-1.6,0-2.2,1.3-2.2,2.8c0,1.4,0.6,2.7,2.1,2.7c1.5,0,1.9-1,1.9-2.1v-0.1h-1.9
			v-0.9h2.9V29.1z"/>
		<path class="st5" d="M108.5,25.9h-3.4v2.3h3.8l-0.1,0.9h-4.6v-6.9h4.6v0.9h-3.6v2h3.4V25.9z"/>
		<path class="st5" d="M115.9,26.2c0-1.3,0-2.6,0-3.3h0c-0.3,1.2-1.3,4-2.1,6.2h-0.9c-0.6-1.8-1.7-5-2-6.2h0
			c0.1,0.8,0.1,2.3,0.1,3.5v2.7h-1v-6.9h1.5c0.7,2.1,1.6,4.8,1.9,5.7h0c0.2-0.7,1.2-3.6,2-5.7h1.5v6.9h-1V26.2z"/>
		<path class="st5" d="M123,25.9h-3.4v2.3h3.8l-0.1,0.9h-4.6v-6.9h4.6v0.9h-3.6v2h3.4V25.9z"/>
		<path class="st5" d="M124.5,29.1v-6.9h1.3c1,1.6,3,4.9,3.4,5.7h0c-0.1-0.9-0.1-2-0.1-3.1v-2.6h1v6.9h-1.3
			c-0.9-1.5-3.1-5.1-3.5-5.9h0c0,0.8,0.1,2,0.1,3.2v2.7H124.5z"/>
		<path class="st5" d="M133.2,23.1H131v-0.9h5.5v0.9h-2.2v6.1h-1V23.1z"/>
		<path class="st5" d="M139.8,22.2h2.7c1.4,0,2.3,0.8,2.3,2c0,1.4-1,2.1-2.4,2.1h-1.6v2.8h-1V22.2z M140.8,25.5h1.5
			c0.9,0,1.4-0.4,1.4-1.2c0-0.8-0.6-1.2-1.3-1.2h-1.6V25.5z"/>
		<path class="st5" d="M146,22.2h1v6.1h3.6l-0.1,0.9H146V22.2z"/>
		<path class="st5" d="M152.6,27.1l-0.7,2h-1l2.5-6.9h1.3l2.6,6.9h-1.1l-0.7-2H152.6z M155.1,26.3c-0.6-1.8-1-2.7-1.1-3.3h0
			c-0.2,0.6-0.6,1.8-1.1,3.3H155.1z"/>
		<path class="st5" d="M159.5,23.1h-2.2v-0.9h5.5v0.9h-2.2v6.1h-1V23.1z"/>
		<path class="st5" d="M163.7,22.2h4.5v0.9h-3.5v2.1h3.3v0.9h-3.3v3h-1V22.2z"/>
		<path class="st5" d="M175.4,25.6c0,1.9-1.1,3.6-3.3,3.6c-2.1,0-3.2-1.6-3.2-3.6c0-2,1.2-3.6,3.3-3.6
			C174.1,22.1,175.4,23.6,175.4,25.6z M170,25.6c0,1.5,0.7,2.7,2.2,2.7c1.6,0,2.2-1.3,2.2-2.7c0-1.5-0.7-2.7-2.2-2.7
			C170.6,23,170,24.2,170,25.6z"/>
		<path class="st5" d="M177.7,26.1v3h-1v-6.9h2.8c1.4,0,2.2,0.8,2.2,1.9c0,0.9-0.5,1.4-1.2,1.6c0.5,0.1,1,0.6,1,1.8v0.3
			c0,0.5,0,1.1,0.1,1.4h-1c-0.1-0.3-0.1-0.8-0.1-1.5v-0.1c0-0.9-0.3-1.4-1.5-1.4H177.7z M177.7,25.3h1.5c1,0,1.5-0.4,1.5-1.1
			c0-0.7-0.5-1.1-1.4-1.1h-1.6V25.3z"/>
		<path class="st5" d="M189,26.2c0-1.3,0-2.6,0-3.3h0c-0.3,1.2-1.3,4-2.1,6.2H186c-0.6-1.8-1.7-5-2-6.2h0c0.1,0.8,0.1,2.3,0.1,3.5
			v2.7h-1v-6.9h1.5c0.7,2.1,1.6,4.8,1.9,5.7h0c0.2-0.7,1.2-3.6,2-5.7h1.5v6.9h-1V26.2z"/>
	</g>
</g>
</svg>
